<mxfile host="app.diagrams.net" agent="Mozilla/5.0 (Windows NT 10.0; Win64; x64) AppleWebKit/537.36 (KHTML, like Gecko) Chrome/137.0.0.0 Safari/537.36" version="27.1.6">
  <diagram name="第 1 页" id="DkC_prD0v3U8Wd_PVia3">
    <mxGraphModel dx="9338" dy="446" grid="1" gridSize="10" guides="1" tooltips="1" connect="1" arrows="1" fold="1" page="1" pageScale="1" pageWidth="827" pageHeight="1169" math="0" shadow="0">
      <root>
        <mxCell id="0" />
        <mxCell id="1" parent="0" />
        <mxCell id="UOhJGm3NhoNirZsMdT3K-6" value="" style="rounded=0;whiteSpace=wrap;html=1;" parent="1" vertex="1">
          <mxGeometry x="350" y="380" width="220" height="150" as="geometry" />
        </mxCell>
        <mxCell id="yAELuXM_3UmZnxBH9bzI-171" value="" style="rounded=0;whiteSpace=wrap;html=1;" parent="1" vertex="1">
          <mxGeometry x="-625" y="2923" width="230" height="215" as="geometry" />
        </mxCell>
        <mxCell id="yAELuXM_3UmZnxBH9bzI-154" value="" style="rounded=0;whiteSpace=wrap;html=1;" parent="1" vertex="1">
          <mxGeometry x="386.67999999999995" y="3365" width="350" height="240" as="geometry" />
        </mxCell>
        <mxCell id="yAELuXM_3UmZnxBH9bzI-139" value="" style="rounded=0;whiteSpace=wrap;html=1;" parent="1" vertex="1">
          <mxGeometry x="500" y="1970" width="450" height="266" as="geometry" />
        </mxCell>
        <mxCell id="yAELuXM_3UmZnxBH9bzI-136" value="" style="rounded=0;whiteSpace=wrap;html=1;" parent="1" vertex="1">
          <mxGeometry x="-210" y="2055" width="260" height="170" as="geometry" />
        </mxCell>
        <mxCell id="yAELuXM_3UmZnxBH9bzI-127" value="" style="rounded=0;whiteSpace=wrap;html=1;" parent="1" vertex="1">
          <mxGeometry x="-618" y="2270" width="290" height="130" as="geometry" />
        </mxCell>
        <mxCell id="yAELuXM_3UmZnxBH9bzI-118" value="" style="rounded=0;whiteSpace=wrap;html=1;" parent="1" vertex="1">
          <mxGeometry x="-720" y="1700" width="517" height="320" as="geometry" />
        </mxCell>
        <mxCell id="yAELuXM_3UmZnxBH9bzI-104" value="" style="rounded=0;whiteSpace=wrap;html=1;" parent="1" vertex="1">
          <mxGeometry x="-940" y="870" width="590" height="500" as="geometry" />
        </mxCell>
        <mxCell id="yAELuXM_3UmZnxBH9bzI-66" value="" style="rounded=0;whiteSpace=wrap;html=1;" parent="1" vertex="1">
          <mxGeometry x="160" y="380" width="180" height="150" as="geometry" />
        </mxCell>
        <mxCell id="yAELuXM_3UmZnxBH9bzI-63" value="" style="rounded=0;whiteSpace=wrap;html=1;" parent="1" vertex="1">
          <mxGeometry x="-827" y="270" width="520" height="380" as="geometry" />
        </mxCell>
        <mxCell id="yAELuXM_3UmZnxBH9bzI-61" value="" style="rounded=0;whiteSpace=wrap;html=1;" parent="1" vertex="1">
          <mxGeometry x="-810" y="150" width="420" height="80" as="geometry" />
        </mxCell>
        <mxCell id="yAELuXM_3UmZnxBH9bzI-26" style="edgeStyle=orthogonalEdgeStyle;rounded=0;orthogonalLoop=1;jettySize=auto;html=1;exitX=0.5;exitY=1;exitDx=0;exitDy=0;entryX=0.5;entryY=0;entryDx=0;entryDy=0;" parent="1" source="yAELuXM_3UmZnxBH9bzI-1" target="yAELuXM_3UmZnxBH9bzI-5" edge="1">
          <mxGeometry relative="1" as="geometry" />
        </mxCell>
        <mxCell id="yAELuXM_3UmZnxBH9bzI-1" value="社会媒体抓取模块" style="rounded=0;whiteSpace=wrap;html=1;" parent="1" vertex="1">
          <mxGeometry x="190" y="70" width="120" height="60" as="geometry" />
        </mxCell>
        <mxCell id="yAELuXM_3UmZnxBH9bzI-19" style="edgeStyle=orthogonalEdgeStyle;rounded=0;orthogonalLoop=1;jettySize=auto;html=1;exitX=0.5;exitY=1;exitDx=0;exitDy=0;" parent="1" source="yAELuXM_3UmZnxBH9bzI-2" target="yAELuXM_3UmZnxBH9bzI-20" edge="1">
          <mxGeometry relative="1" as="geometry">
            <mxPoint x="450" y="260" as="targetPoint" />
          </mxGeometry>
        </mxCell>
        <mxCell id="yAELuXM_3UmZnxBH9bzI-2" value="链上抓取模块" style="rounded=0;whiteSpace=wrap;html=1;" parent="1" vertex="1">
          <mxGeometry x="390" y="70" width="120" height="60" as="geometry" />
        </mxCell>
        <mxCell id="yAELuXM_3UmZnxBH9bzI-27" style="edgeStyle=orthogonalEdgeStyle;rounded=0;orthogonalLoop=1;jettySize=auto;html=1;exitX=0.5;exitY=1;exitDx=0;exitDy=0;entryX=0.5;entryY=0;entryDx=0;entryDy=0;" parent="1" source="yAELuXM_3UmZnxBH9bzI-5" target="yAELuXM_3UmZnxBH9bzI-38" edge="1">
          <mxGeometry relative="1" as="geometry">
            <mxPoint x="240" y="320" as="targetPoint" />
          </mxGeometry>
        </mxCell>
        <mxCell id="yAELuXM_3UmZnxBH9bzI-29" value="消费新推文的原生数据消息" style="edgeLabel;html=1;align=center;verticalAlign=middle;resizable=0;points=[];" parent="yAELuXM_3UmZnxBH9bzI-27" vertex="1" connectable="0">
          <mxGeometry x="0.1149" y="-2" relative="1" as="geometry">
            <mxPoint as="offset" />
          </mxGeometry>
        </mxCell>
        <mxCell id="yAELuXM_3UmZnxBH9bzI-50" style="edgeStyle=orthogonalEdgeStyle;rounded=0;orthogonalLoop=1;jettySize=auto;html=1;exitX=0;exitY=0;exitDx=0;exitDy=0;entryX=1;entryY=0.5;entryDx=0;entryDy=0;" parent="1" source="yAELuXM_3UmZnxBH9bzI-5" target="yAELuXM_3UmZnxBH9bzI-33" edge="1">
          <mxGeometry relative="1" as="geometry">
            <Array as="points">
              <mxPoint x="-630" y="200" />
            </Array>
          </mxGeometry>
        </mxCell>
        <mxCell id="yAELuXM_3UmZnxBH9bzI-54" value="消费过滤出的新推文中的代币地址消息&lt;br&gt;{&lt;br&gt;tokenAddress:0x,&lt;br&gt;full_text:&lt;br&gt;}" style="edgeLabel;html=1;align=center;verticalAlign=middle;resizable=0;points=[];" parent="yAELuXM_3UmZnxBH9bzI-50" vertex="1" connectable="0">
          <mxGeometry x="0.042" y="-1" relative="1" as="geometry">
            <mxPoint as="offset" />
          </mxGeometry>
        </mxCell>
        <mxCell id="yAELuXM_3UmZnxBH9bzI-5" value="Rabbitmq" style="rounded=0;whiteSpace=wrap;html=1;" parent="1" vertex="1">
          <mxGeometry x="190" y="200" width="120" height="60" as="geometry" />
        </mxCell>
        <mxCell id="yAELuXM_3UmZnxBH9bzI-41" style="edgeStyle=orthogonalEdgeStyle;rounded=0;orthogonalLoop=1;jettySize=auto;html=1;exitX=0.5;exitY=1;exitDx=0;exitDy=0;entryX=0.5;entryY=0;entryDx=0;entryDy=0;" parent="1" source="yAELuXM_3UmZnxBH9bzI-20" target="yAELuXM_3UmZnxBH9bzI-40" edge="1">
          <mxGeometry relative="1" as="geometry" />
        </mxCell>
        <mxCell id="yAELuXM_3UmZnxBH9bzI-43" value="消费原生队列信息" style="edgeLabel;html=1;align=center;verticalAlign=middle;resizable=0;points=[];" parent="yAELuXM_3UmZnxBH9bzI-41" vertex="1" connectable="0">
          <mxGeometry x="-0.0267" y="1" relative="1" as="geometry">
            <mxPoint as="offset" />
          </mxGeometry>
        </mxCell>
        <mxCell id="yAELuXM_3UmZnxBH9bzI-198" style="edgeStyle=orthogonalEdgeStyle;rounded=0;orthogonalLoop=1;jettySize=auto;html=1;exitX=1;exitY=0.5;exitDx=0;exitDy=0;entryX=0.5;entryY=1;entryDx=0;entryDy=0;" parent="1" source="yAELuXM_3UmZnxBH9bzI-20" target="yAELuXM_3UmZnxBH9bzI-81" edge="1">
          <mxGeometry relative="1" as="geometry">
            <mxPoint x="710" y="230" as="targetPoint" />
            <Array as="points">
              <mxPoint x="660" y="230" />
              <mxPoint x="660" y="610" />
              <mxPoint x="-390" y="610" />
            </Array>
          </mxGeometry>
        </mxCell>
        <mxCell id="yAELuXM_3UmZnxBH9bzI-199" value="过滤出持仓金额高的代币" style="edgeLabel;html=1;align=center;verticalAlign=middle;resizable=0;points=[];" parent="yAELuXM_3UmZnxBH9bzI-198" vertex="1" connectable="0">
          <mxGeometry x="-0.2813" y="-3" relative="1" as="geometry">
            <mxPoint x="-142" y="3" as="offset" />
          </mxGeometry>
        </mxCell>
        <mxCell id="yAELuXM_3UmZnxBH9bzI-20" value="Rabbitmq" style="rounded=0;whiteSpace=wrap;html=1;" parent="1" vertex="1">
          <mxGeometry x="390" y="200" width="120" height="60" as="geometry" />
        </mxCell>
        <mxCell id="yAELuXM_3UmZnxBH9bzI-33" value="写入Redis_1&lt;div&gt;&lt;span style=&quot;text-align: left;&quot;&gt;存抓到的代币的地址和次数&lt;/span&gt;&lt;/div&gt;" style="rounded=0;whiteSpace=wrap;html=1;" parent="1" vertex="1">
          <mxGeometry x="-740" y="170" width="130" height="50" as="geometry" />
        </mxCell>
        <mxCell id="yAELuXM_3UmZnxBH9bzI-38" value="写入ES_1" style="rounded=0;whiteSpace=wrap;html=1;" parent="1" vertex="1">
          <mxGeometry x="190" y="420" width="120" height="60" as="geometry" />
        </mxCell>
        <mxCell id="yAELuXM_3UmZnxBH9bzI-40" value="写入ES_2" style="rounded=0;whiteSpace=wrap;html=1;" parent="1" vertex="1">
          <mxGeometry x="390" y="420" width="120" height="60" as="geometry" />
        </mxCell>
        <mxCell id="yAELuXM_3UmZnxBH9bzI-62" value="小模块2" style="text;html=1;align=center;verticalAlign=middle;whiteSpace=wrap;rounded=0;" parent="1" vertex="1">
          <mxGeometry x="-810" y="150" width="60" height="30" as="geometry" />
        </mxCell>
        <mxCell id="yAELuXM_3UmZnxBH9bzI-65" value="小模块3" style="text;html=1;align=center;verticalAlign=middle;whiteSpace=wrap;rounded=0;" parent="1" vertex="1">
          <mxGeometry x="-827" y="270" width="60" height="30" as="geometry" />
        </mxCell>
        <mxCell id="yAELuXM_3UmZnxBH9bzI-67" value="小模块1" style="text;html=1;align=center;verticalAlign=middle;whiteSpace=wrap;rounded=0;" parent="1" vertex="1">
          <mxGeometry x="160" y="390" width="60" height="30" as="geometry" />
        </mxCell>
        <mxCell id="yAELuXM_3UmZnxBH9bzI-77" value="&lt;span style=&quot;text-align: center;&quot;&gt;预检1功能前置条件：&lt;/span&gt;&lt;br style=&quot;text-align: center;&quot;&gt;&lt;h1 style=&quot;margin-top: 0px;&quot;&gt;&lt;span style=&quot;font-size: 12px; font-weight: 400; text-align: center;&quot;&gt;1、每个用户id唯一&lt;/span&gt;&lt;br style=&quot;font-size: 12px; font-weight: 400; text-align: center;&quot;&gt;&lt;span style=&quot;font-size: 12px; font-weight: 400; text-align: center;&quot;&gt;2、每个用户只有一个钱包地址&lt;/span&gt;&lt;br style=&quot;font-size: 12px; font-weight: 400; text-align: center;&quot;&gt;&lt;span style=&quot;font-size: 12px; font-weight: 400; text-align: center;&quot;&gt;3、每个用户只允许对每个代币都只有一种策略&lt;br&gt;4、&lt;/span&gt;&lt;span style=&quot;background-color: transparent; color: light-dark(rgb(0, 0, 0), rgb(255, 255, 255)); font-size: 12px; font-weight: normal;&quot;&gt;假设用户是有后台管理的，并且后台管理中有一个策略管理模块可以看到用户自己的已经生成的所有策略。&lt;/span&gt;&lt;/h1&gt;" style="text;html=1;whiteSpace=wrap;overflow=hidden;rounded=0;" parent="1" vertex="1">
          <mxGeometry x="-780" y="290" width="300" height="170" as="geometry" />
        </mxCell>
        <mxCell id="yAELuXM_3UmZnxBH9bzI-80" value="&lt;h1 style=&quot;margin-top: 0px;&quot;&gt;预检1功能说明：&lt;/h1&gt;&lt;div&gt;&lt;br&gt;预检1功能对系统中所有用户判断他们策略管理模块中所有策略中是否有该代币的策略&lt;br&gt;&lt;br&gt;备注：这里判断检查的时候是去ES中取数据的&lt;br&gt;&lt;br&gt;&lt;br&gt;&lt;/div&gt;" style="text;html=1;whiteSpace=wrap;overflow=hidden;rounded=0;" parent="1" vertex="1">
          <mxGeometry x="-800" y="480" width="280" height="180" as="geometry" />
        </mxCell>
        <mxCell id="yAELuXM_3UmZnxBH9bzI-83" value="" style="edgeStyle=orthogonalEdgeStyle;rounded=0;orthogonalLoop=1;jettySize=auto;html=1;exitX=0;exitY=1;exitDx=0;exitDy=0;entryX=1;entryY=0.5;entryDx=0;entryDy=0;" parent="1" source="yAELuXM_3UmZnxBH9bzI-5" target="yAELuXM_3UmZnxBH9bzI-81" edge="1">
          <mxGeometry relative="1" as="geometry">
            <mxPoint x="180" y="260" as="sourcePoint" />
            <mxPoint x="-490" y="260" as="targetPoint" />
            <Array as="points" />
          </mxGeometry>
        </mxCell>
        <mxCell id="yAELuXM_3UmZnxBH9bzI-85" value="消费过滤出的新推文中的代币地址消息&lt;br&gt;{&lt;br&gt;tokenAddress:0x,&lt;br&gt;full_text:&lt;br&gt;}" style="edgeLabel;html=1;align=center;verticalAlign=middle;resizable=0;points=[];" parent="yAELuXM_3UmZnxBH9bzI-83" vertex="1" connectable="0">
          <mxGeometry x="0.3849" y="3" relative="1" as="geometry">
            <mxPoint x="71" y="-13" as="offset" />
          </mxGeometry>
        </mxCell>
        <mxCell id="yAELuXM_3UmZnxBH9bzI-86" style="edgeStyle=orthogonalEdgeStyle;rounded=0;orthogonalLoop=1;jettySize=auto;html=1;exitX=0;exitY=0.5;exitDx=0;exitDy=0;" parent="1" source="yAELuXM_3UmZnxBH9bzI-81" edge="1">
          <mxGeometry relative="1" as="geometry">
            <mxPoint x="-475" y="710" as="targetPoint" />
          </mxGeometry>
        </mxCell>
        <mxCell id="yAELuXM_3UmZnxBH9bzI-90" value="是" style="edgeLabel;html=1;align=center;verticalAlign=middle;resizable=0;points=[];" parent="yAELuXM_3UmZnxBH9bzI-86" vertex="1" connectable="0">
          <mxGeometry x="0.1692" relative="1" as="geometry">
            <mxPoint as="offset" />
          </mxGeometry>
        </mxCell>
        <mxCell id="yAELuXM_3UmZnxBH9bzI-202" style="edgeStyle=orthogonalEdgeStyle;rounded=0;orthogonalLoop=1;jettySize=auto;html=1;exitX=0.5;exitY=0;exitDx=0;exitDy=0;entryX=0.5;entryY=0;entryDx=0;entryDy=0;" parent="1" source="yAELuXM_3UmZnxBH9bzI-81" target="yAELuXM_3UmZnxBH9bzI-201" edge="1">
          <mxGeometry relative="1" as="geometry" />
        </mxCell>
        <mxCell id="yAELuXM_3UmZnxBH9bzI-203" value="否" style="edgeLabel;html=1;align=center;verticalAlign=middle;resizable=0;points=[];" parent="yAELuXM_3UmZnxBH9bzI-202" vertex="1" connectable="0">
          <mxGeometry x="0.4833" y="-1" relative="1" as="geometry">
            <mxPoint x="1" as="offset" />
          </mxGeometry>
        </mxCell>
        <mxCell id="yAELuXM_3UmZnxBH9bzI-81" value="预检1" style="rhombus;whiteSpace=wrap;html=1;" parent="1" vertex="1">
          <mxGeometry x="-450" y="280" width="120" height="80" as="geometry" />
        </mxCell>
        <mxCell id="yAELuXM_3UmZnxBH9bzI-98" style="edgeStyle=orthogonalEdgeStyle;rounded=0;orthogonalLoop=1;jettySize=auto;html=1;exitX=0.5;exitY=1;exitDx=0;exitDy=0;" parent="1" source="yAELuXM_3UmZnxBH9bzI-97" edge="1">
          <mxGeometry relative="1" as="geometry">
            <mxPoint x="-473" y="890" as="targetPoint" />
          </mxGeometry>
        </mxCell>
        <mxCell id="yAELuXM_3UmZnxBH9bzI-99" value="消费通过预检1后的消息&lt;br&gt;{&lt;br&gt;tokenAddress:0x,&lt;br&gt;full_text:&lt;br&gt;}" style="edgeLabel;html=1;align=center;verticalAlign=middle;resizable=0;points=[];" parent="yAELuXM_3UmZnxBH9bzI-98" vertex="1" connectable="0">
          <mxGeometry x="-0.117" relative="1" as="geometry">
            <mxPoint as="offset" />
          </mxGeometry>
        </mxCell>
        <mxCell id="yAELuXM_3UmZnxBH9bzI-97" value="Rabbitmq" style="rounded=0;whiteSpace=wrap;html=1;" parent="1" vertex="1">
          <mxGeometry x="-533" y="710" width="120" height="60" as="geometry" />
        </mxCell>
        <mxCell id="yAELuXM_3UmZnxBH9bzI-112" style="edgeStyle=orthogonalEdgeStyle;rounded=0;orthogonalLoop=1;jettySize=auto;html=1;exitX=0.5;exitY=1;exitDx=0;exitDy=0;" parent="1" source="yAELuXM_3UmZnxBH9bzI-100" edge="1">
          <mxGeometry relative="1" as="geometry">
            <mxPoint x="-473" y="1460" as="targetPoint" />
          </mxGeometry>
        </mxCell>
        <mxCell id="yAELuXM_3UmZnxBH9bzI-100" value="用户对推荐代币新增策略" style="rounded=0;whiteSpace=wrap;html=1;" parent="1" vertex="1">
          <mxGeometry x="-565.25" y="890" width="184.5" height="40" as="geometry" />
        </mxCell>
        <mxCell id="yAELuXM_3UmZnxBH9bzI-103" value="&lt;h1 style=&quot;margin-top: 0px;&quot;&gt;&lt;span style=&quot;font-size: 12px; font-weight: 400; text-align: center;&quot;&gt;前置条件：&lt;/span&gt;&lt;br style=&quot;font-size: 12px; font-weight: 400; text-align: center;&quot;&gt;&lt;span style=&quot;font-size: 12px; font-weight: 400; text-align: center;&quot;&gt;1、用户后台有一个推荐代币模块&lt;/span&gt;&lt;/h1&gt;" style="text;html=1;whiteSpace=wrap;overflow=hidden;rounded=0;" parent="1" vertex="1">
          <mxGeometry x="-930" y="900" width="210" height="70" as="geometry" />
        </mxCell>
        <mxCell id="yAELuXM_3UmZnxBH9bzI-105" value="&lt;h1 style=&quot;margin-top: 0px;&quot;&gt;用户对推荐代币新增策略功能说明：&lt;/h1&gt;&lt;div&gt;&lt;br&gt;用户对推荐代币制定一系列有自己想法的静态策略和动态策略，静态只影响订单的生成(即通过预检2)，动态策略是在订单生成后才开始作用&lt;br&gt;&lt;br&gt;&lt;span style=&quot;font-size: 16px;&quot;&gt;静态策略&lt;/span&gt;{&lt;br&gt;1、&lt;span style=&quot;font-size: 16px;&quot;&gt;推文关键词包含指定词组&lt;br&gt;&lt;/span&gt;2、&lt;span style=&quot;font-size: 16px;&quot;&gt;推文关键词不包含指定词组&lt;br&gt;3、&lt;/span&gt;&lt;span style=&quot;font-size: 16px;&quot;&gt;代币池总价值小于指定量&lt;br&gt;}&lt;br&gt;&lt;br&gt;动态策略{&lt;br&gt;加仓策略&lt;br&gt;减仓策略&lt;br&gt;清仓策略&lt;br&gt;}&lt;br&gt;&lt;/span&gt;&lt;span style=&quot;font-size: 16px;&quot;&gt;&lt;br&gt;&lt;br&gt;&lt;/span&gt;&lt;br&gt;&lt;br&gt;&lt;br&gt;&lt;br&gt;&lt;br&gt;&lt;/div&gt;" style="text;html=1;whiteSpace=wrap;overflow=hidden;rounded=0;" parent="1" vertex="1">
          <mxGeometry x="-930" y="990" width="390" height="360" as="geometry" />
        </mxCell>
        <mxCell id="yAELuXM_3UmZnxBH9bzI-106" value="小模块4" style="text;html=1;align=center;verticalAlign=middle;whiteSpace=wrap;rounded=0;" parent="1" vertex="1">
          <mxGeometry x="-940" y="870" width="60" height="30" as="geometry" />
        </mxCell>
        <mxCell id="yAELuXM_3UmZnxBH9bzI-115" style="edgeStyle=orthogonalEdgeStyle;rounded=0;orthogonalLoop=1;jettySize=auto;html=1;exitX=0.5;exitY=1;exitDx=0;exitDy=0;" parent="1" source="yAELuXM_3UmZnxBH9bzI-114" edge="1">
          <mxGeometry relative="1" as="geometry">
            <mxPoint x="-473" y="1730" as="targetPoint" />
          </mxGeometry>
        </mxCell>
        <mxCell id="yAELuXM_3UmZnxBH9bzI-116" value="消费用户对推荐代币新增策略的消息&lt;br&gt;{&lt;br&gt;tokenAddress:0x,&lt;br&gt;静态策略:{&lt;br&gt;},&lt;br&gt;动态策略:{&lt;br&gt;},&lt;br&gt;full_text:&lt;br&gt;}" style="edgeLabel;html=1;align=center;verticalAlign=middle;resizable=0;points=[];" parent="yAELuXM_3UmZnxBH9bzI-115" vertex="1" connectable="0">
          <mxGeometry x="-0.0835" y="-2" relative="1" as="geometry">
            <mxPoint as="offset" />
          </mxGeometry>
        </mxCell>
        <mxCell id="yAELuXM_3UmZnxBH9bzI-114" value="Rabbitmq" style="rounded=0;whiteSpace=wrap;html=1;" parent="1" vertex="1">
          <mxGeometry x="-533" y="1460" width="120" height="60" as="geometry" />
        </mxCell>
        <mxCell id="yAELuXM_3UmZnxBH9bzI-121" style="edgeStyle=orthogonalEdgeStyle;rounded=0;orthogonalLoop=1;jettySize=auto;html=1;exitX=0.5;exitY=1;exitDx=0;exitDy=0;" parent="1" source="yAELuXM_3UmZnxBH9bzI-117" edge="1">
          <mxGeometry relative="1" as="geometry">
            <mxPoint x="-473" y="2110" as="targetPoint" />
          </mxGeometry>
        </mxCell>
        <mxCell id="yAELuXM_3UmZnxBH9bzI-122" style="edgeStyle=orthogonalEdgeStyle;rounded=0;orthogonalLoop=1;jettySize=auto;html=1;exitX=0;exitY=0.5;exitDx=0;exitDy=0;" parent="1" source="yAELuXM_3UmZnxBH9bzI-117" edge="1">
          <mxGeometry relative="1" as="geometry">
            <mxPoint x="-800" y="1770" as="targetPoint" />
          </mxGeometry>
        </mxCell>
        <mxCell id="yAELuXM_3UmZnxBH9bzI-117" value="预检2" style="rhombus;whiteSpace=wrap;html=1;" parent="1" vertex="1">
          <mxGeometry x="-551.5" y="1730" width="157" height="80" as="geometry" />
        </mxCell>
        <mxCell id="yAELuXM_3UmZnxBH9bzI-119" value="小模块5" style="text;html=1;align=center;verticalAlign=middle;whiteSpace=wrap;rounded=0;" parent="1" vertex="1">
          <mxGeometry x="-710" y="1700" width="60" height="30" as="geometry" />
        </mxCell>
        <mxCell id="yAELuXM_3UmZnxBH9bzI-120" value="&lt;h1 style=&quot;margin-top: 0px;&quot;&gt;预检2功能说明&lt;/h1&gt;&lt;p&gt;以静态策略作为判断标准，根据读取ES数据和对第一次发现该新代币的推文的判断，通过的则生成有效订单，不通过则结束&lt;/p&gt;" style="text;html=1;whiteSpace=wrap;overflow=hidden;rounded=0;" parent="1" vertex="1">
          <mxGeometry x="-713" y="1830" width="180" height="120" as="geometry" />
        </mxCell>
        <mxCell id="yAELuXM_3UmZnxBH9bzI-123" value="结束" style="rounded=1;whiteSpace=wrap;html=1;" parent="1" vertex="1">
          <mxGeometry x="-920" y="1740" width="120" height="60" as="geometry" />
        </mxCell>
        <mxCell id="yAELuXM_3UmZnxBH9bzI-125" style="edgeStyle=orthogonalEdgeStyle;rounded=0;orthogonalLoop=1;jettySize=auto;html=1;exitX=0.5;exitY=1;exitDx=0;exitDy=0;" parent="1" source="yAELuXM_3UmZnxBH9bzI-124" target="yAELuXM_3UmZnxBH9bzI-126" edge="1">
          <mxGeometry relative="1" as="geometry">
            <mxPoint x="-473" y="2240" as="targetPoint" />
          </mxGeometry>
        </mxCell>
        <mxCell id="yAELuXM_3UmZnxBH9bzI-131" value="消费传过来的有效订单消息&lt;br&gt;{&lt;br&gt;tokenaddress:0x&lt;br&gt;动态策略{}，&lt;br&gt;订单状态:进行中&lt;br&gt;}" style="edgeLabel;html=1;align=center;verticalAlign=middle;resizable=0;points=[];" parent="yAELuXM_3UmZnxBH9bzI-125" vertex="1" connectable="0">
          <mxGeometry x="-0.216" y="-1" relative="1" as="geometry">
            <mxPoint as="offset" />
          </mxGeometry>
        </mxCell>
        <mxCell id="yAELuXM_3UmZnxBH9bzI-132" style="edgeStyle=orthogonalEdgeStyle;rounded=0;orthogonalLoop=1;jettySize=auto;html=1;exitX=1;exitY=0.5;exitDx=0;exitDy=0;" parent="1" source="yAELuXM_3UmZnxBH9bzI-124" edge="1">
          <mxGeometry relative="1" as="geometry">
            <mxPoint x="-140" y="2140" as="targetPoint" />
          </mxGeometry>
        </mxCell>
        <mxCell id="yAELuXM_3UmZnxBH9bzI-124" value="Rabbitmq" style="rounded=0;whiteSpace=wrap;html=1;" parent="1" vertex="1">
          <mxGeometry x="-533" y="2110" width="120" height="60" as="geometry" />
        </mxCell>
        <mxCell id="yAELuXM_3UmZnxBH9bzI-126" value="写入Redis_2" style="rounded=0;whiteSpace=wrap;html=1;" parent="1" vertex="1">
          <mxGeometry x="-533" y="2295" width="120" height="60" as="geometry" />
        </mxCell>
        <mxCell id="yAELuXM_3UmZnxBH9bzI-128" value="小模块6" style="text;html=1;align=center;verticalAlign=middle;whiteSpace=wrap;rounded=0;" parent="1" vertex="1">
          <mxGeometry x="-611.5" y="2270" width="60" height="30" as="geometry" />
        </mxCell>
        <mxCell id="yAELuXM_3UmZnxBH9bzI-129" value="&lt;h1 style=&quot;margin-top: 0px;&quot;&gt;Redis分类&lt;/h1&gt;&lt;p&gt;Redis_1：存抓到的代币的地址和次数&lt;br&gt;Redis_2：存有效订单&lt;br&gt;Redis_3：存各种代币的价格、符号&lt;br&gt;Redis_4：存终止订单&lt;/p&gt;" style="text;html=1;whiteSpace=wrap;overflow=hidden;rounded=0;" parent="1" vertex="1">
          <mxGeometry x="-980" width="220" height="120" as="geometry" />
        </mxCell>
        <mxCell id="yAELuXM_3UmZnxBH9bzI-133" value="写入Redis_3" style="rounded=0;whiteSpace=wrap;html=1;" parent="1" vertex="1">
          <mxGeometry x="-140" y="2110" width="120" height="60" as="geometry" />
        </mxCell>
        <mxCell id="yAELuXM_3UmZnxBH9bzI-137" value="小模块7" style="text;html=1;align=center;verticalAlign=middle;whiteSpace=wrap;rounded=0;" parent="1" vertex="1">
          <mxGeometry x="-190" y="2055" width="60" height="30" as="geometry" />
        </mxCell>
        <mxCell id="yAELuXM_3UmZnxBH9bzI-141" value="持续监听Redis中所有的代币地址，并且更新该代币的价格" style="edgeStyle=orthogonalEdgeStyle;rounded=0;orthogonalLoop=1;jettySize=auto;html=1;exitX=0.5;exitY=1;exitDx=0;exitDy=0;" parent="1" target="yAELuXM_3UmZnxBH9bzI-133" edge="1">
          <mxGeometry relative="1" as="geometry">
            <mxPoint x="790" y="2145" as="sourcePoint" />
            <Array as="points">
              <mxPoint x="354" y="2140" />
            </Array>
          </mxGeometry>
        </mxCell>
        <mxCell id="yAELuXM_3UmZnxBH9bzI-140" value="小模块8" style="text;html=1;align=center;verticalAlign=middle;whiteSpace=wrap;rounded=0;" parent="1" vertex="1">
          <mxGeometry x="500" y="1970" width="60" height="30" as="geometry" />
        </mxCell>
        <mxCell id="yAELuXM_3UmZnxBH9bzI-142" value="&lt;span style=&quot;font-size: 11px; text-wrap-mode: nowrap; background-color: rgb(255, 255, 255);&quot;&gt;消费有效订单和交易参数消息&lt;/span&gt;" style="rounded=0;whiteSpace=wrap;html=1;" parent="1" vertex="1">
          <mxGeometry x="-1130" y="2860" width="2270" height="1540" as="geometry" />
        </mxCell>
        <mxCell id="yAELuXM_3UmZnxBH9bzI-143" value="状态机模块" style="text;html=1;align=center;verticalAlign=middle;whiteSpace=wrap;rounded=0;" parent="1" vertex="1">
          <mxGeometry x="-1090" y="2860" width="100" height="30" as="geometry" />
        </mxCell>
        <mxCell id="yAELuXM_3UmZnxBH9bzI-156" value="" style="rounded=0;whiteSpace=wrap;html=1;" parent="1" vertex="1">
          <mxGeometry x="340" y="3345" width="403.32" height="260" as="geometry" />
        </mxCell>
        <mxCell id="yAELuXM_3UmZnxBH9bzI-144" value="定时检查Redis_2中所有&lt;br&gt;有效订单" style="rhombus;whiteSpace=wrap;html=1;" parent="1" vertex="1">
          <mxGeometry x="461.68000000000006" y="3445" width="200" height="100" as="geometry" />
        </mxCell>
        <mxCell id="yAELuXM_3UmZnxBH9bzI-145" value="" style="html=1;shadow=0;dashed=0;shape=mxgraph.basic.arc;startAngle=0.25;endAngle=1;strokeWidth=4;strokeColor=#d79b00;rotation=135;fillColor=#ffe6cc;movable=1;resizable=1;rotatable=1;deletable=1;editable=1;locked=0;connectable=1;" parent="1" vertex="1">
          <mxGeometry x="450.00047977286204" y="3391.745479772862" width="223.36" height="223.25" as="geometry" />
        </mxCell>
        <mxCell id="yAELuXM_3UmZnxBH9bzI-146" value="OKX持续更新价格" style="rounded=0;whiteSpace=wrap;html=1;" parent="1" vertex="1">
          <mxGeometry x="790" y="2120" width="120" height="60" as="geometry" />
        </mxCell>
        <mxCell id="yAELuXM_3UmZnxBH9bzI-147" value="Rabbitmq" style="rounded=0;whiteSpace=wrap;html=1;" parent="1" vertex="1">
          <mxGeometry x="501.68000000000006" y="3265" width="120" height="60" as="geometry" />
        </mxCell>
        <mxCell id="yAELuXM_3UmZnxBH9bzI-148" style="edgeStyle=orthogonalEdgeStyle;rounded=0;orthogonalLoop=1;jettySize=auto;html=1;exitX=0.5;exitY=0;exitDx=0;exitDy=0;entryX=0.5;entryY=1;entryDx=0;entryDy=0;" parent="1" source="yAELuXM_3UmZnxBH9bzI-144" target="yAELuXM_3UmZnxBH9bzI-147" edge="1">
          <mxGeometry relative="1" as="geometry" />
        </mxCell>
        <mxCell id="yAELuXM_3UmZnxBH9bzI-162" style="edgeStyle=orthogonalEdgeStyle;rounded=0;orthogonalLoop=1;jettySize=auto;html=1;exitX=0;exitY=0.5;exitDx=0;exitDy=0;entryX=1;entryY=0.5;entryDx=0;entryDy=0;" parent="1" source="yAELuXM_3UmZnxBH9bzI-157" target="yAELuXM_3UmZnxBH9bzI-160" edge="1">
          <mxGeometry relative="1" as="geometry" />
        </mxCell>
        <mxCell id="yAELuXM_3UmZnxBH9bzI-157" value="" style="rounded=0;whiteSpace=wrap;html=1;" parent="1" vertex="1">
          <mxGeometry x="400.02" y="2910" width="709.98" height="230" as="geometry" />
        </mxCell>
        <mxCell id="yAELuXM_3UmZnxBH9bzI-149" style="edgeStyle=orthogonalEdgeStyle;rounded=0;orthogonalLoop=1;jettySize=auto;html=1;exitX=0.5;exitY=0;exitDx=0;exitDy=0;entryX=0.5;entryY=1;entryDx=0;entryDy=0;" parent="1" target="yAELuXM_3UmZnxBH9bzI-152" edge="1">
          <mxGeometry relative="1" as="geometry">
            <mxPoint x="560.0000000000002" y="3265" as="sourcePoint" />
            <mxPoint x="561.6800000000003" y="3155" as="targetPoint" />
            <Array as="points">
              <mxPoint x="562" y="3265" />
            </Array>
          </mxGeometry>
        </mxCell>
        <mxCell id="yAELuXM_3UmZnxBH9bzI-151" value="消费消息有效订单&lt;br&gt;{&lt;br&gt;token:0x,&lt;br&gt;status:进行中&lt;br&gt;....&lt;br&gt;}" style="edgeLabel;html=1;align=center;verticalAlign=middle;resizable=0;points=[];" parent="yAELuXM_3UmZnxBH9bzI-149" vertex="1" connectable="0">
          <mxGeometry x="-0.0027" y="3" relative="1" as="geometry">
            <mxPoint as="offset" />
          </mxGeometry>
        </mxCell>
        <mxCell id="yAELuXM_3UmZnxBH9bzI-152" value="决定订单的更新策略" style="rhombus;whiteSpace=wrap;html=1;" parent="1" vertex="1">
          <mxGeometry x="492.68000000000006" y="3025" width="138" height="80" as="geometry" />
        </mxCell>
        <mxCell id="yAELuXM_3UmZnxBH9bzI-155" value="小模块9" style="text;html=1;align=center;verticalAlign=middle;whiteSpace=wrap;rounded=0;" parent="1" vertex="1">
          <mxGeometry x="380" y="3365" width="60" height="30" as="geometry" />
        </mxCell>
        <mxCell id="yAELuXM_3UmZnxBH9bzI-158" value="小模块10" style="text;html=1;align=center;verticalAlign=middle;whiteSpace=wrap;rounded=0;" parent="1" vertex="1">
          <mxGeometry x="401.68000000000006" y="2910" width="60" height="30" as="geometry" />
        </mxCell>
        <mxCell id="yAELuXM_3UmZnxBH9bzI-159" value="&lt;h1 style=&quot;margin-top: 0px;&quot;&gt;决定订单更新策略功能说明:&lt;/h1&gt;&lt;div&gt;根据该订单的代币地址查询数据&lt;br&gt;1、查询Redis_3中代币的价格&lt;br&gt;2、查询ES中关键KOL提及&lt;br&gt;3、查询Redis_1累积KOL提及次数&lt;br&gt;4、根据以上三步的判断决定执行有效订单策略中的那个策略，如加仓、减仓、清仓&lt;/div&gt;&lt;p&gt;&lt;br&gt;&lt;/p&gt;" style="text;html=1;whiteSpace=wrap;overflow=hidden;rounded=0;" parent="1" vertex="1">
          <mxGeometry x="800" y="2955" width="300" height="150" as="geometry" />
        </mxCell>
        <mxCell id="yAELuXM_3UmZnxBH9bzI-168" value="" style="rounded=0;whiteSpace=wrap;html=1;" parent="1" vertex="1">
          <mxGeometry x="-380" y="2935" width="210" height="190" as="geometry" />
        </mxCell>
        <mxCell id="yAELuXM_3UmZnxBH9bzI-165" style="edgeStyle=orthogonalEdgeStyle;rounded=0;orthogonalLoop=1;jettySize=auto;html=1;exitX=0;exitY=0.5;exitDx=0;exitDy=0;entryX=1;entryY=0.5;entryDx=0;entryDy=0;" parent="1" source="yAELuXM_3UmZnxBH9bzI-160" target="yAELuXM_3UmZnxBH9bzI-164" edge="1">
          <mxGeometry relative="1" as="geometry" />
        </mxCell>
        <mxCell id="yAELuXM_3UmZnxBH9bzI-167" value="消费传过来的有效订单和更新趋势&lt;br&gt;{&lt;br&gt;有效订单所有字段:&lt;br&gt;更新策略:执行用户定义的加仓、减仓、清仓的一种&lt;br&gt;}" style="edgeLabel;html=1;align=center;verticalAlign=middle;resizable=0;points=[];" parent="yAELuXM_3UmZnxBH9bzI-165" vertex="1" connectable="0">
          <mxGeometry x="0.2689" y="1" relative="1" as="geometry">
            <mxPoint x="36" y="-1" as="offset" />
          </mxGeometry>
        </mxCell>
        <mxCell id="yAELuXM_3UmZnxBH9bzI-160" value="Rabbitmq" style="rounded=0;whiteSpace=wrap;html=1;" parent="1" vertex="1">
          <mxGeometry x="130" y="2995" width="120" height="60" as="geometry" />
        </mxCell>
        <mxCell id="yAELuXM_3UmZnxBH9bzI-177" style="edgeStyle=orthogonalEdgeStyle;rounded=0;orthogonalLoop=1;jettySize=auto;html=1;exitX=0;exitY=0.5;exitDx=0;exitDy=0;entryX=1;entryY=0.5;entryDx=0;entryDy=0;" parent="1" source="yAELuXM_3UmZnxBH9bzI-164" target="yAELuXM_3UmZnxBH9bzI-176" edge="1">
          <mxGeometry relative="1" as="geometry" />
        </mxCell>
        <mxCell id="yAELuXM_3UmZnxBH9bzI-164" value="根据更新策略计算出要传哪些交易参数给交易服务模块" style="rounded=0;whiteSpace=wrap;html=1;" parent="1" vertex="1">
          <mxGeometry x="-320" y="2995" width="140" height="60" as="geometry" />
        </mxCell>
        <mxCell id="yAELuXM_3UmZnxBH9bzI-181" value="" style="rounded=0;whiteSpace=wrap;html=1;" parent="1" vertex="1">
          <mxGeometry x="-1030" y="2935" width="250" height="162" as="geometry" />
        </mxCell>
        <mxCell id="yAELuXM_3UmZnxBH9bzI-169" value="小模块11" style="text;html=1;align=center;verticalAlign=middle;whiteSpace=wrap;rounded=0;" parent="1" vertex="1">
          <mxGeometry x="-320" y="2940" width="60" height="30" as="geometry" />
        </mxCell>
        <mxCell id="yAELuXM_3UmZnxBH9bzI-188" style="edgeStyle=orthogonalEdgeStyle;rounded=0;orthogonalLoop=1;jettySize=auto;html=1;exitX=0.5;exitY=1;exitDx=0;exitDy=0;" parent="1" source="yAELuXM_3UmZnxBH9bzI-170" edge="1">
          <mxGeometry relative="1" as="geometry">
            <mxPoint x="-940" y="3130" as="targetPoint" />
          </mxGeometry>
        </mxCell>
        <mxCell id="yAELuXM_3UmZnxBH9bzI-170" value="交易服务" style="rounded=0;whiteSpace=wrap;html=1;" parent="1" vertex="1">
          <mxGeometry x="-1000" y="2995" width="120" height="60" as="geometry" />
        </mxCell>
        <mxCell id="yAELuXM_3UmZnxBH9bzI-175" value="小模块12" style="text;html=1;align=center;verticalAlign=middle;whiteSpace=wrap;rounded=0;" parent="1" vertex="1">
          <mxGeometry x="-1030" y="2935" width="60" height="30" as="geometry" />
        </mxCell>
        <mxCell id="UOhJGm3NhoNirZsMdT3K-14" style="edgeStyle=orthogonalEdgeStyle;rounded=0;orthogonalLoop=1;jettySize=auto;html=1;exitX=0;exitY=0.5;exitDx=0;exitDy=0;" parent="1" source="yAELuXM_3UmZnxBH9bzI-176" target="yAELuXM_3UmZnxBH9bzI-170" edge="1">
          <mxGeometry relative="1" as="geometry" />
        </mxCell>
        <mxCell id="yAELuXM_3UmZnxBH9bzI-176" value="Rabbiitmq" style="rounded=0;whiteSpace=wrap;html=1;" parent="1" vertex="1">
          <mxGeometry x="-640" y="2995" width="120" height="60" as="geometry" />
        </mxCell>
        <mxCell id="UOhJGm3NhoNirZsMdT3K-2" value="" style="rounded=0;whiteSpace=wrap;html=1;" parent="1" vertex="1">
          <mxGeometry x="-1037" y="3830" width="210" height="170" as="geometry" />
        </mxCell>
        <mxCell id="yAELuXM_3UmZnxBH9bzI-191" style="edgeStyle=orthogonalEdgeStyle;rounded=0;orthogonalLoop=1;jettySize=auto;html=1;entryX=0.5;entryY=0;entryDx=0;entryDy=0;exitX=0.5;exitY=1;exitDx=0;exitDy=0;" parent="1" source="UOhJGm3NhoNirZsMdT3K-30" target="yAELuXM_3UmZnxBH9bzI-190" edge="1">
          <mxGeometry relative="1" as="geometry">
            <mxPoint x="-940" y="3580" as="sourcePoint" />
            <Array as="points">
              <mxPoint x="-940" y="3870" />
            </Array>
          </mxGeometry>
        </mxCell>
        <mxCell id="yAELuXM_3UmZnxBH9bzI-192" value="消费更新过后的有效订单队列" style="edgeLabel;html=1;align=center;verticalAlign=middle;resizable=0;points=[];" parent="yAELuXM_3UmZnxBH9bzI-191" vertex="1" connectable="0">
          <mxGeometry x="-0.1111" relative="1" as="geometry">
            <mxPoint as="offset" />
          </mxGeometry>
        </mxCell>
        <mxCell id="UOhJGm3NhoNirZsMdT3K-4" value="" style="rounded=0;whiteSpace=wrap;html=1;" parent="1" vertex="1">
          <mxGeometry x="-750" y="3830" width="266" height="170" as="geometry" />
        </mxCell>
        <mxCell id="yAELuXM_3UmZnxBH9bzI-190" value="写入Redis_2" style="rounded=0;whiteSpace=wrap;html=1;" parent="1" vertex="1">
          <mxGeometry x="-1010" y="3870" width="120" height="60" as="geometry" />
        </mxCell>
        <mxCell id="yAELuXM_3UmZnxBH9bzI-194" value="写入Redis_4" style="rounded=0;whiteSpace=wrap;html=1;" parent="1" vertex="1">
          <mxGeometry x="-690" y="3870" width="120" height="60" as="geometry" />
        </mxCell>
        <mxCell id="yAELuXM_3UmZnxBH9bzI-201" value="结束" style="rounded=1;whiteSpace=wrap;html=1;" parent="1" vertex="1">
          <mxGeometry x="-1140" y="290" width="120" height="60" as="geometry" />
        </mxCell>
        <mxCell id="UOhJGm3NhoNirZsMdT3K-1" style="edgeStyle=orthogonalEdgeStyle;rounded=0;orthogonalLoop=1;jettySize=auto;html=1;exitX=0.5;exitY=1;exitDx=0;exitDy=0;entryX=0.311;entryY=0.978;entryDx=0;entryDy=0;entryPerimeter=0;" parent="1" source="yAELuXM_3UmZnxBH9bzI-168" target="yAELuXM_3UmZnxBH9bzI-168" edge="1">
          <mxGeometry relative="1" as="geometry" />
        </mxCell>
        <mxCell id="UOhJGm3NhoNirZsMdT3K-3" value="小模块13" style="text;html=1;align=center;verticalAlign=middle;whiteSpace=wrap;rounded=0;" parent="1" vertex="1">
          <mxGeometry x="-1030" y="3830" width="60" height="30" as="geometry" />
        </mxCell>
        <mxCell id="UOhJGm3NhoNirZsMdT3K-5" value="小模块14" style="text;html=1;align=center;verticalAlign=middle;whiteSpace=wrap;rounded=0;" parent="1" vertex="1">
          <mxGeometry x="-740" y="3830" width="60" height="30" as="geometry" />
        </mxCell>
        <mxCell id="UOhJGm3NhoNirZsMdT3K-7" value="小模块15" style="text;html=1;align=center;verticalAlign=middle;whiteSpace=wrap;rounded=0;" parent="1" vertex="1">
          <mxGeometry x="350" y="390" width="60" height="30" as="geometry" />
        </mxCell>
        <mxCell id="UOhJGm3NhoNirZsMdT3K-8" value="&lt;h1 style=&quot;margin-top: 0px;&quot;&gt;ES分类&lt;/h1&gt;&lt;p&gt;ES_1：存入推文原生数据&lt;br&gt;ES_2：存入链上信息原生数据&lt;/p&gt;" style="text;html=1;whiteSpace=wrap;overflow=hidden;rounded=0;" parent="1" vertex="1">
          <mxGeometry x="647" y="20" width="180" height="120" as="geometry" />
        </mxCell>
        <mxCell id="UOhJGm3NhoNirZsMdT3K-26" style="edgeStyle=orthogonalEdgeStyle;rounded=0;orthogonalLoop=1;jettySize=auto;html=1;exitX=0.5;exitY=1;exitDx=0;exitDy=0;" parent="1" source="UOhJGm3NhoNirZsMdT3K-19" target="UOhJGm3NhoNirZsMdT3K-21" edge="1">
          <mxGeometry relative="1" as="geometry" />
        </mxCell>
        <mxCell id="UOhJGm3NhoNirZsMdT3K-19" value="Rabbitmq" style="rounded=0;whiteSpace=wrap;html=1;" parent="1" vertex="1">
          <mxGeometry x="-1000" y="3130" width="120" height="60" as="geometry" />
        </mxCell>
        <mxCell id="UOhJGm3NhoNirZsMdT3K-32" style="edgeStyle=orthogonalEdgeStyle;rounded=0;orthogonalLoop=1;jettySize=auto;html=1;exitX=0.5;exitY=1;exitDx=0;exitDy=0;entryX=0.5;entryY=0;entryDx=0;entryDy=0;" parent="1" source="UOhJGm3NhoNirZsMdT3K-21" target="UOhJGm3NhoNirZsMdT3K-30" edge="1">
          <mxGeometry relative="1" as="geometry" />
        </mxCell>
        <mxCell id="UOhJGm3NhoNirZsMdT3K-21" value="判断传过来的订单中是否有金额存在为0的&lt;br&gt;为0的就代表清仓了，为0的订单的状态就修改为终止状态" style="rhombus;whiteSpace=wrap;html=1;" parent="1" vertex="1">
          <mxGeometry x="-1125" y="3225" width="370" height="100" as="geometry" />
        </mxCell>
        <mxCell id="UOhJGm3NhoNirZsMdT3K-34" style="edgeStyle=orthogonalEdgeStyle;rounded=0;orthogonalLoop=1;jettySize=auto;html=1;exitX=1;exitY=0.5;exitDx=0;exitDy=0;entryX=0.5;entryY=0;entryDx=0;entryDy=0;" parent="1" source="UOhJGm3NhoNirZsMdT3K-30" target="yAELuXM_3UmZnxBH9bzI-194" edge="1">
          <mxGeometry relative="1" as="geometry" />
        </mxCell>
        <mxCell id="UOhJGm3NhoNirZsMdT3K-35" value="消费更新过后的终止订单队列" style="edgeLabel;html=1;align=center;verticalAlign=middle;resizable=0;points=[];" parent="UOhJGm3NhoNirZsMdT3K-34" vertex="1" connectable="0">
          <mxGeometry x="0.3552" y="-12" relative="1" as="geometry">
            <mxPoint as="offset" />
          </mxGeometry>
        </mxCell>
        <mxCell id="UOhJGm3NhoNirZsMdT3K-30" value="Rabbitmq" style="rounded=0;whiteSpace=wrap;html=1;" parent="1" vertex="1">
          <mxGeometry x="-1000" y="3395" width="120" height="60" as="geometry" />
        </mxCell>
        <mxCell id="TL7NvAF6mEW8mt4Q94En-22" style="edgeStyle=orthogonalEdgeStyle;rounded=0;orthogonalLoop=1;jettySize=auto;html=1;exitX=0.5;exitY=1;exitDx=0;exitDy=0;entryX=0.51;entryY=0;entryDx=0;entryDy=0;entryPerimeter=0;" edge="1" parent="1" source="TL7NvAF6mEW8mt4Q94En-7" target="TL7NvAF6mEW8mt4Q94En-55">
          <mxGeometry relative="1" as="geometry">
            <mxPoint x="-680" y="5430" as="targetPoint" />
          </mxGeometry>
        </mxCell>
        <mxCell id="TL7NvAF6mEW8mt4Q94En-7" value="" style="rounded=0;whiteSpace=wrap;html=1;shadow=1;strokeColor=#99FF99;fillColor=#99FFFF;" vertex="1" parent="1">
          <mxGeometry x="-1120" y="4446" width="880" height="394" as="geometry" />
        </mxCell>
        <mxCell id="TL7NvAF6mEW8mt4Q94En-8" value="&lt;h1 style=&quot;margin-top: 0px;&quot;&gt;&lt;div data-lark-html-role=&quot;root&quot;&gt;&lt;span style=&quot;white-space: pre;&quot; class=&quot;text-only&quot;&gt;社媒信息模块&lt;/span&gt;&lt;/div&gt;&lt;/h1&gt;" style="text;html=1;whiteSpace=wrap;overflow=hidden;rounded=0;" vertex="1" parent="1">
          <mxGeometry x="-1110" y="4460" width="160" height="40" as="geometry" />
        </mxCell>
        <mxCell id="TL7NvAF6mEW8mt4Q94En-119" style="edgeStyle=orthogonalEdgeStyle;rounded=0;orthogonalLoop=1;jettySize=auto;html=1;entryX=0.5;entryY=0;entryDx=0;entryDy=0;" edge="1" parent="1" source="TL7NvAF6mEW8mt4Q94En-9">
          <mxGeometry relative="1" as="geometry">
            <mxPoint x="640" y="5201" as="targetPoint" />
          </mxGeometry>
        </mxCell>
        <mxCell id="TL7NvAF6mEW8mt4Q94En-9" value="" style="rounded=0;whiteSpace=wrap;html=1;fillColor=#FFE599;" vertex="1" parent="1">
          <mxGeometry x="200" y="4446" width="880" height="394" as="geometry" />
        </mxCell>
        <mxCell id="TL7NvAF6mEW8mt4Q94En-11" value="&lt;h1 style=&quot;margin-top: 0px;&quot;&gt;&lt;div data-lark-html-role=&quot;root&quot;&gt;&lt;span style=&quot;white-space: pre;&quot; class=&quot;text-only&quot;&gt;链上信息模块&lt;/span&gt;&lt;/div&gt;&lt;/h1&gt;" style="text;html=1;whiteSpace=wrap;overflow=hidden;rounded=0;" vertex="1" parent="1">
          <mxGeometry x="220" y="4460" width="160" height="50" as="geometry" />
        </mxCell>
        <mxCell id="TL7NvAF6mEW8mt4Q94En-12" value="&lt;b&gt;&lt;font style=&quot;font-size: 18px;&quot;&gt;抓取进程1&lt;/font&gt;&lt;/b&gt;" style="rounded=0;whiteSpace=wrap;html=1;" vertex="1" parent="1">
          <mxGeometry x="-1050" y="4740" width="120" height="60" as="geometry" />
        </mxCell>
        <mxCell id="TL7NvAF6mEW8mt4Q94En-13" value="&lt;b&gt;&lt;font style=&quot;font-size: 18px;&quot;&gt;抓取进程2&lt;/font&gt;&lt;/b&gt;" style="rounded=0;whiteSpace=wrap;html=1;" vertex="1" parent="1">
          <mxGeometry x="-860" y="4740" width="120" height="60" as="geometry" />
        </mxCell>
        <mxCell id="TL7NvAF6mEW8mt4Q94En-14" value="&lt;b&gt;&lt;font style=&quot;font-size: 18px;&quot;&gt;抓取进程3&lt;/font&gt;&lt;/b&gt;" style="rounded=0;whiteSpace=wrap;html=1;" vertex="1" parent="1">
          <mxGeometry x="-670" y="4740" width="120" height="60" as="geometry" />
        </mxCell>
        <mxCell id="TL7NvAF6mEW8mt4Q94En-16" value="&lt;b&gt;&lt;font style=&quot;font-size: 18px;&quot;&gt;抓取进程N&lt;/font&gt;&lt;/b&gt;" style="rounded=0;whiteSpace=wrap;html=1;" vertex="1" parent="1">
          <mxGeometry x="-470" y="4740" width="120" height="60" as="geometry" />
        </mxCell>
        <mxCell id="TL7NvAF6mEW8mt4Q94En-18" value="&lt;b&gt;&lt;font style=&quot;font-size: 18px;&quot;&gt;抓取进程1&lt;/font&gt;&lt;/b&gt;" style="rounded=0;whiteSpace=wrap;html=1;" vertex="1" parent="1">
          <mxGeometry x="300.00000000000006" y="4740" width="120" height="60" as="geometry" />
        </mxCell>
        <mxCell id="TL7NvAF6mEW8mt4Q94En-19" value="&lt;b&gt;&lt;font style=&quot;font-size: 18px;&quot;&gt;抓取进程2&lt;/font&gt;&lt;/b&gt;" style="rounded=0;whiteSpace=wrap;html=1;" vertex="1" parent="1">
          <mxGeometry x="490.00000000000006" y="4740" width="120" height="60" as="geometry" />
        </mxCell>
        <mxCell id="TL7NvAF6mEW8mt4Q94En-20" value="&lt;b&gt;&lt;font style=&quot;font-size: 18px;&quot;&gt;抓取进程3&lt;/font&gt;&lt;/b&gt;" style="rounded=0;whiteSpace=wrap;html=1;" vertex="1" parent="1">
          <mxGeometry x="680.0000000000001" y="4740" width="120" height="60" as="geometry" />
        </mxCell>
        <mxCell id="TL7NvAF6mEW8mt4Q94En-21" value="&lt;b&gt;&lt;font style=&quot;font-size: 18px;&quot;&gt;抓取进程3&lt;/font&gt;&lt;/b&gt;" style="rounded=0;whiteSpace=wrap;html=1;" vertex="1" parent="1">
          <mxGeometry x="880.0000000000001" y="4740" width="120" height="60" as="geometry" />
        </mxCell>
        <mxCell id="TL7NvAF6mEW8mt4Q94En-41" value="&lt;font style=&quot;font-size: 14px;&quot;&gt;&lt;b&gt;KOL列表推文代币提及-Redis写入队列&lt;/b&gt;&lt;br&gt;&lt;/font&gt;队列名:Write-Redis-Kol-TokenAddress-Count" style="shape=umlFrame;whiteSpace=wrap;html=1;pointerEvents=0;fillColor=#CCFFCC;width=250;height=50;" vertex="1" parent="1">
          <mxGeometry x="-1210" y="5200" width="300" height="200" as="geometry" />
        </mxCell>
        <mxCell id="TL7NvAF6mEW8mt4Q94En-45" style="edgeStyle=orthogonalEdgeStyle;rounded=0;orthogonalLoop=1;jettySize=auto;html=1;exitX=0;exitY=0.5;exitDx=0;exitDy=0;" edge="1" parent="1" source="TL7NvAF6mEW8mt4Q94En-44" target="TL7NvAF6mEW8mt4Q94En-41">
          <mxGeometry relative="1" as="geometry" />
        </mxCell>
        <mxCell id="TL7NvAF6mEW8mt4Q94En-88" style="edgeStyle=orthogonalEdgeStyle;rounded=0;orthogonalLoop=1;jettySize=auto;html=1;" edge="1" parent="1" source="TL7NvAF6mEW8mt4Q94En-44" target="TL7NvAF6mEW8mt4Q94En-86">
          <mxGeometry relative="1" as="geometry" />
        </mxCell>
        <mxCell id="TL7NvAF6mEW8mt4Q94En-44" value="代币地址触发器" style="ellipse;whiteSpace=wrap;html=1;fillColor=#FFCCCC;" vertex="1" parent="1">
          <mxGeometry x="-738" y="5260" width="120" height="80" as="geometry" />
        </mxCell>
        <mxCell id="TL7NvAF6mEW8mt4Q94En-52" value="&lt;b&gt;&lt;font style=&quot;font-size: 14px;&quot;&gt;写入代币地址提及次数Redis&lt;/font&gt;&lt;/b&gt;" style="rounded=0;whiteSpace=wrap;html=1;fillColor=#FF9999;" vertex="1" parent="1">
          <mxGeometry x="-1654" y="5270" width="230" height="60" as="geometry" />
        </mxCell>
        <mxCell id="TL7NvAF6mEW8mt4Q94En-54" value="" style="endArrow=classic;html=1;rounded=0;" edge="1" parent="1" source="TL7NvAF6mEW8mt4Q94En-41">
          <mxGeometry width="50" height="50" relative="1" as="geometry">
            <mxPoint x="-1420.7106781186549" y="5350" as="sourcePoint" />
            <mxPoint x="-1430" y="5300" as="targetPoint" />
          </mxGeometry>
        </mxCell>
        <mxCell id="TL7NvAF6mEW8mt4Q94En-91" style="edgeStyle=orthogonalEdgeStyle;rounded=0;orthogonalLoop=1;jettySize=auto;html=1;" edge="1" parent="1" source="TL7NvAF6mEW8mt4Q94En-55" target="TL7NvAF6mEW8mt4Q94En-58">
          <mxGeometry relative="1" as="geometry" />
        </mxCell>
        <mxCell id="TL7NvAF6mEW8mt4Q94En-55" value="&lt;font style=&quot;font-size: 14px;&quot;&gt;&lt;b&gt;KOL列表推文原生数据队列&lt;/b&gt;&lt;br&gt;&lt;/font&gt;队列名:Write-ES-Kol-TokenAddress-Count" style="shape=umlFrame;whiteSpace=wrap;html=1;pointerEvents=0;fillColor=#CCFFCC;width=250;height=50;" vertex="1" parent="1">
          <mxGeometry x="-833" y="5480" width="300" height="200" as="geometry" />
        </mxCell>
        <mxCell id="TL7NvAF6mEW8mt4Q94En-56" value="&lt;h1 style=&quot;margin-top: 0px;&quot;&gt;&lt;span style=&quot;background-color: transparent; color: light-dark(rgb(0, 0, 0), rgb(255, 255, 255));&quot;&gt;消息格式&lt;br&gt;&lt;/span&gt;&lt;span style=&quot;font-size: 12px;&quot;&gt;&lt;span style=&quot;font-weight: 400;&quot;&gt;{&lt;/span&gt;&lt;br&gt;代币地址&lt;br&gt;&lt;span style=&quot;font-weight: 400;&quot;&gt;}&lt;/span&gt;&lt;/span&gt;&lt;/h1&gt;" style="text;html=1;whiteSpace=wrap;overflow=hidden;rounded=0;" vertex="1" parent="1">
          <mxGeometry x="-1180" y="5261" width="180" height="120" as="geometry" />
        </mxCell>
        <mxCell id="TL7NvAF6mEW8mt4Q94En-57" value="&lt;h1 style=&quot;margin-top: 0px;&quot;&gt;消息格式&lt;/h1&gt;&lt;p&gt;{&lt;b&gt;&lt;font style=&quot;font-size: 14px;&quot;&gt;&lt;br&gt;推文原生数据&lt;br&gt;}&lt;/font&gt;&lt;/b&gt;&lt;/p&gt;" style="text;html=1;whiteSpace=wrap;overflow=hidden;rounded=0;" vertex="1" parent="1">
          <mxGeometry x="-820" y="5540" width="180" height="120" as="geometry" />
        </mxCell>
        <mxCell id="TL7NvAF6mEW8mt4Q94En-58" value="&lt;b&gt;&lt;font style=&quot;font-size: 14px;&quot;&gt;写入推文信息原生数据ES中&lt;/font&gt;&lt;/b&gt;" style="rounded=0;whiteSpace=wrap;html=1;fillColor=#99FFCC;" vertex="1" parent="1">
          <mxGeometry x="-771.5" y="5840" width="177" height="90" as="geometry" />
        </mxCell>
        <mxCell id="TL7NvAF6mEW8mt4Q94En-84" value="" style="whiteSpace=wrap;html=1;aspect=fixed;" vertex="1" parent="1">
          <mxGeometry x="-8080" y="5160" width="1800" height="1800" as="geometry" />
        </mxCell>
        <mxCell id="TL7NvAF6mEW8mt4Q94En-90" style="edgeStyle=orthogonalEdgeStyle;rounded=0;orthogonalLoop=1;jettySize=auto;html=1;entryX=0.5;entryY=0;entryDx=0;entryDy=0;" edge="1" parent="1" source="TL7NvAF6mEW8mt4Q94En-86" target="TL7NvAF6mEW8mt4Q94En-89">
          <mxGeometry relative="1" as="geometry" />
        </mxCell>
        <mxCell id="TL7NvAF6mEW8mt4Q94En-86" value="&lt;font style=&quot;font-size: 14px;&quot;&gt;&lt;b&gt;KOL列表推文代币提及-代币信息查询队列&lt;/b&gt;&lt;br&gt;&lt;/font&gt;队列名:Write-Redis-Kol-TokenAddress-Count" style="shape=umlFrame;whiteSpace=wrap;html=1;pointerEvents=0;fillColor=#CCFFCC;width=280;height=50;" vertex="1" parent="1">
          <mxGeometry x="-390" y="5190" width="320" height="220" as="geometry" />
        </mxCell>
        <mxCell id="TL7NvAF6mEW8mt4Q94En-87" value="&lt;h1 style=&quot;margin-top: 0px;&quot;&gt;&lt;span style=&quot;background-color: transparent; color: light-dark(rgb(0, 0, 0), rgb(255, 255, 255));&quot;&gt;消息格式&lt;br&gt;&lt;/span&gt;&lt;span style=&quot;font-size: 12px;&quot;&gt;&lt;span style=&quot;font-weight: 400;&quot;&gt;{&lt;/span&gt;&lt;br&gt;代币地址&lt;br&gt;推文&lt;br&gt;&lt;span style=&quot;font-weight: 400;&quot;&gt;}&lt;/span&gt;&lt;/span&gt;&lt;/h1&gt;" style="text;html=1;whiteSpace=wrap;overflow=hidden;rounded=0;" vertex="1" parent="1">
          <mxGeometry x="-370" y="5261" width="180" height="149" as="geometry" />
        </mxCell>
        <mxCell id="TL7NvAF6mEW8mt4Q94En-112" style="edgeStyle=orthogonalEdgeStyle;rounded=0;orthogonalLoop=1;jettySize=auto;html=1;" edge="1" parent="1" source="TL7NvAF6mEW8mt4Q94En-89" target="TL7NvAF6mEW8mt4Q94En-93">
          <mxGeometry relative="1" as="geometry" />
        </mxCell>
        <mxCell id="TL7NvAF6mEW8mt4Q94En-89" value="&lt;b&gt;&lt;font style=&quot;font-size: 14px;&quot;&gt;查询链上信息原生信息ES&lt;br&gt;关于该代币流动池信息&lt;/font&gt;&lt;/b&gt;" style="rounded=0;whiteSpace=wrap;html=1;fillColor=#99FFCC;" vertex="1" parent="1">
          <mxGeometry x="-325" y="5540" width="190" height="90" as="geometry" />
        </mxCell>
        <mxCell id="TL7NvAF6mEW8mt4Q94En-113" style="edgeStyle=orthogonalEdgeStyle;rounded=0;orthogonalLoop=1;jettySize=auto;html=1;" edge="1" parent="1" source="TL7NvAF6mEW8mt4Q94En-93" target="TL7NvAF6mEW8mt4Q94En-109">
          <mxGeometry relative="1" as="geometry" />
        </mxCell>
        <mxCell id="TL7NvAF6mEW8mt4Q94En-93" value="&lt;font style=&quot;font-size: 14px;&quot;&gt;&lt;b&gt;初步订单队列&lt;/b&gt;&lt;br&gt;&lt;/font&gt;队列名:Preliminary order" style="shape=umlFrame;whiteSpace=wrap;html=1;pointerEvents=0;fillColor=#CCFFCC;width=250;height=50;" vertex="1" parent="1">
          <mxGeometry x="-380.75" y="5810" width="300" height="200" as="geometry" />
        </mxCell>
        <mxCell id="TL7NvAF6mEW8mt4Q94En-94" value="&lt;h1 style=&quot;margin-top: 0px;&quot;&gt;消息格式&lt;/h1&gt;&lt;p&gt;{&lt;b&gt;&lt;font style=&quot;font-size: 14px;&quot;&gt;&lt;br&gt;&lt;/font&gt;&lt;/b&gt;&quot;社媒&quot;: 代币地址，推文；&lt;br&gt;&quot;链上&quot;: 代币符号，LP地址&lt;b&gt;&lt;font style=&quot;font-size: 14px;&quot;&gt;&lt;br&gt;}&lt;/font&gt;&lt;/b&gt;&lt;/p&gt;" style="text;html=1;whiteSpace=wrap;overflow=hidden;rounded=0;" vertex="1" parent="1">
          <mxGeometry x="-370.75" y="5870" width="180" height="120" as="geometry" />
        </mxCell>
        <mxCell id="TL7NvAF6mEW8mt4Q94En-115" style="edgeStyle=orthogonalEdgeStyle;rounded=0;orthogonalLoop=1;jettySize=auto;html=1;" edge="1" parent="1" source="TL7NvAF6mEW8mt4Q94En-102" target="TL7NvAF6mEW8mt4Q94En-111">
          <mxGeometry relative="1" as="geometry" />
        </mxCell>
        <mxCell id="TL7NvAF6mEW8mt4Q94En-102" value="&lt;font style=&quot;font-size: 14px;&quot;&gt;&lt;b&gt;最终订单队列&lt;/b&gt;&lt;br&gt;&lt;/font&gt;队列名:Final order" style="shape=umlFrame;whiteSpace=wrap;html=1;pointerEvents=0;fillColor=#CCFFCC;width=250;height=50;" vertex="1" parent="1">
          <mxGeometry x="-380.75" y="6570" width="300" height="200" as="geometry" />
        </mxCell>
        <mxCell id="TL7NvAF6mEW8mt4Q94En-104" value="&lt;h1 style=&quot;margin-top: 0px;&quot;&gt;消息格式&lt;/h1&gt;&lt;p&gt;{&lt;br&gt;&quot;社媒&quot;: 代币地址，推文；&lt;br&gt;&quot;链上&quot;: 代币符号，LP地址&lt;br&gt;&quot;用户策略“:静态策略、动态策略&lt;br&gt;}&lt;/p&gt;" style="text;html=1;whiteSpace=wrap;overflow=hidden;rounded=0;" vertex="1" parent="1">
          <mxGeometry x="-360.75" y="6630" width="170" height="120" as="geometry" />
        </mxCell>
        <mxCell id="TL7NvAF6mEW8mt4Q94En-110" style="edgeStyle=orthogonalEdgeStyle;rounded=0;orthogonalLoop=1;jettySize=auto;html=1;exitX=0.5;exitY=1;exitDx=0;exitDy=0;" edge="1" parent="1" source="TL7NvAF6mEW8mt4Q94En-109" target="TL7NvAF6mEW8mt4Q94En-102">
          <mxGeometry relative="1" as="geometry" />
        </mxCell>
        <mxCell id="TL7NvAF6mEW8mt4Q94En-109" value="&lt;div&gt;&lt;b&gt;&lt;font style=&quot;font-size: 18px;&quot;&gt;匹配系统所有用户的独有策略库，&lt;/font&gt;&lt;/b&gt;&lt;/div&gt;&lt;div&gt;&lt;b&gt;&lt;font style=&quot;font-size: 18px;&quot;&gt;通过的策略库中某个策略的静态策略&lt;/font&gt;&lt;/b&gt;&lt;/div&gt;&lt;div&gt;&lt;b&gt;&lt;font style=&quot;font-size: 18px;&quot;&gt;就生成最终订单&lt;/font&gt;&lt;/b&gt;&lt;/div&gt;" style="rhombus;whiteSpace=wrap;html=1;" vertex="1" parent="1">
          <mxGeometry x="-410" y="6180" width="360" height="210" as="geometry" />
        </mxCell>
        <mxCell id="TL7NvAF6mEW8mt4Q94En-111" value="&lt;b&gt;&lt;font style=&quot;font-size: 14px;&quot;&gt;写入有效订单Redis&lt;/font&gt;&lt;/b&gt;" style="rounded=0;whiteSpace=wrap;html=1;fillColor=#FF9999;" vertex="1" parent="1">
          <mxGeometry x="-345" y="6910" width="230" height="60" as="geometry" />
        </mxCell>
        <mxCell id="TL7NvAF6mEW8mt4Q94En-117" value="流动池大份额触发" style="ellipse;whiteSpace=wrap;html=1;fillColor=#FFCCCC;" vertex="1" parent="1">
          <mxGeometry x="1020" y="5070" width="120" height="80" as="geometry" />
        </mxCell>
        <mxCell id="TL7NvAF6mEW8mt4Q94En-120" value="&lt;font style=&quot;font-size: 14px;&quot;&gt;&lt;b&gt;链上原生数据队列&lt;/b&gt;&lt;br&gt;&lt;/font&gt;队列名:Write-Redis-Kol-TokenAddress-Count" style="shape=umlFrame;whiteSpace=wrap;html=1;pointerEvents=0;fillColor=#CCFFCC;width=280;height=50;" vertex="1" parent="1">
          <mxGeometry x="480" y="5200" width="320" height="220" as="geometry" />
        </mxCell>
        <mxCell id="TL7NvAF6mEW8mt4Q94En-121" value="&lt;h1 style=&quot;margin-top: 0px;&quot;&gt;&lt;span style=&quot;background-color: transparent; color: light-dark(rgb(0, 0, 0), rgb(255, 255, 255));&quot;&gt;消息格式&lt;br&gt;&lt;/span&gt;&lt;span style=&quot;font-size: 12px;&quot;&gt;&lt;span style=&quot;font-weight: 400;&quot;&gt;{&lt;/span&gt;&lt;br&gt;代币地址&lt;br&gt;推文&lt;br&gt;&lt;span style=&quot;font-weight: 400;&quot;&gt;}&lt;/span&gt;&lt;/span&gt;&lt;/h1&gt;" style="text;html=1;whiteSpace=wrap;overflow=hidden;rounded=0;" vertex="1" parent="1">
          <mxGeometry x="500" y="5271" width="180" height="149" as="geometry" />
        </mxCell>
      </root>
    </mxGraphModel>
  </diagram>
</mxfile>
